<svg width="342" height="310" fill="none" xmlns="http://www.w3.org/2000/svg"><g filter="url(#a)"><rect x="12" y="6" width="153" height="139" rx="2.4" fill="#fff"/></g><path fill="#FAFAFA" stroke="#E5E9EA" stroke-width=".6" d="M21.538 15.586h135.514v119.828H21.538z"/><path fill="#E5E9EA" d="M21.538 75.5h135.514v.468H21.538zM21.538 86.734h135.514v.468H21.538zM21.538 97.968h135.514v.468H21.538zM21.538 109.201h135.514v.468H21.538zM21.538 30.565h135.514v.468H21.538zM21.538 19.331h135.514v.468H21.538zM21.538 41.798h135.514v.468H21.538zM21.538 53.032h135.514v.468H21.538zM21.538 64.266h135.514v.468H21.538zM21.538 120.435h135.514v.468H21.538zM21.538 131.669h135.514v.468H21.538z"/><path d="M25.114 75.5h18.28v26.957a3 3 0 0 1-3 3h-12.28a3 3 0 0 1-3-3V75.5Z" fill="#242D52"/><path d="M25.114 75.5h18.28v19.468a3 3 0 0 1-3 3h-12.28a3 3 0 0 1-3-3V75.5ZM52.933 75.343h18.28v-20.41a3 3 0 0 0-3-3h-12.28a3 3 0 0 0-3 3v20.41Z" fill="#F3603C"/><path d="M52.933 75.343h18.28v30.709a3 3 0 0 1-3 3h-12.28a3 3 0 0 1-3-3v-30.71ZM107.376 75.5h18.281V33.365a3 3 0 0 0-3-3h-12.281a3 3 0 0 0-3 3V75.5Z" fill="#242D52"/><path d="M107.376 75.5h18.281V44.649a3 3 0 0 0-3-3h-12.281a3 3 0 0 0-3 3v30.85Z" fill="#F3603C"/><path d="M135.195 75.5h18.28v34.546a3 3 0 0 1-3 3h-12.28a3 3 0 0 1-3-3V75.5Z" fill="#242D52"/><path d="M135.195 75.5h18.28v27.037a3 3 0 0 1-3 3h-12.28a3 3 0 0 1-3-3V75.5ZM79.956 75.5h18.28v53.319a3 3 0 0 1-3 3h-12.28a3 3 0 0 1-3-3V75.5Z" fill="#F3603C"/><path d="M79.956 75.5h18.28v19.528a3 3 0 0 1-3 3h-12.28a3 3 0 0 1-3-3V75.5Z" fill="#242D52"/><g filter="url(#b)"><rect x="177" y="6" width="153" height="139" rx="2.4" fill="#fff"/></g><path d="M289.387 75.5c0 19.902-16.036 35.931-35.688 35.931-19.653 0-35.689-16.03-35.689-35.931 0-19.902 16.036-35.931 35.689-35.931 19.652 0 35.688 16.03 35.688 35.931Z" stroke="#fff" stroke-width="24"/><path d="M253.699 27.569c13.19 0 25.13 5.383 33.763 14.082l-8.517 8.453A35.905 35.905 0 0 1 289.387 75.5h12a47.9 47.9 0 0 1-13.925 33.849l-8.517-8.453c-6.48 6.529-15.392 10.535-25.246 10.535v12c-13.191 0-25.131-5.383-33.764-14.082l8.518-8.453A35.9 35.9 0 0 1 218.01 75.5h-12a47.902 47.902 0 0 1 13.925-33.85l8.518 8.454c6.479-6.529 15.391-10.535 25.246-10.535v-12Z" stroke="#F3603C" stroke-width="24" stroke-dasharray="301.2"/><path d="M253.699 27.569c13.19 0 25.13 5.383 33.763 14.082l-8.517 8.453A35.905 35.905 0 0 1 289.387 75.5h12a47.9 47.9 0 0 1-13.925 33.849l-8.517-8.453c-6.48 6.529-15.392 10.535-25.246 10.535v12c-13.191 0-25.131-5.383-33.764-14.082l8.518-8.453A35.9 35.9 0 0 1 218.01 75.5h-12a47.902 47.902 0 0 1 13.925-33.85l8.518 8.454c6.479-6.529 15.391-10.535 25.246-10.535v-12Z" stroke="#242D52" stroke-width="24" stroke-dasharray="204"/><g filter="url(#c)"><rect x="95" y="153" width="153" height="139" rx="2.4" fill="#fff"/></g><rect x="104.538" y="236.08" width="62.392" height="46.333" rx="2.4" fill="#F3603C"/><path fill-rule="evenodd" clip-rule="evenodd" d="M140.859 267.098a1.737 1.737 0 0 1-1.287.538c-.504 0-.934-.179-1.289-.538a1.788 1.788 0 0 1-.533-1.305c0-.503.179-.934.536-1.293a1.749 1.749 0 0 1 1.286-.538c.505 0 .934.179 1.287.538.353.359.529.79.529 1.293 0 .507-.176.942-.529 1.305Zm-15.544 5.33v-8.343h-1.269l-2.02 1.773v1.404l1.95-1.761v6.927h1.339Zm-7.217-1.205v-2.311h2.293v-1.053h-2.293v-2.312h-1.048v2.312h-2.3v1.053h2.3v2.311h1.048Zm11.584 1.082a.792.792 0 0 1-.579.24.793.793 0 0 1-.577-.243.783.783 0 0 1-.244-.576c0-.226.081-.42.244-.582a.793.793 0 0 1 .577-.243c.225 0 .418.081.579.243a.797.797 0 0 1 .242.582.787.787 0 0 1-.242.579Zm4.472.234c.854 0 1.544-.262 2.07-.787.525-.524.788-1.214.788-2.068 0-.85-.258-1.505-.774-1.963-.516-.458-1.294-.687-2.334-.687h-.908l.18-1.726h3.458v-1.217h-4.628l-.431 4.089h2.137c1.3 0 1.95.517 1.95 1.551 0 .468-.137.845-.411 1.132-.273.287-.649.43-1.126.43-.415 0-.769-.121-1.062-.363-.293-.241-.44-.604-.44-1.088 0-.097.014-.238.041-.421l-1.345.082a3.86 3.86 0 0 0-.029.421c0 .542.134 1.015.402 1.419a2.47 2.47 0 0 0 1.042.901c.427.197.9.295 1.42.295Zm6.059-.105 4.389-8.361h-1.164l-4.378 8.361h1.153Zm-1.281-5.994a.877.877 0 0 0 .64.266.861.861 0 0 0 .643-.266.894.894 0 0 0 .26-.647.876.876 0 0 0-.262-.638.873.873 0 0 0-.641-.263.884.884 0 0 0-.64.261.855.855 0 0 0-.268.64c0 .254.089.469.268.647Zm5.222 6.088c.5 0 .926-.18 1.277-.539.352-.358.527-.79.527-1.293 0-.507-.176-.939-.53-1.296a1.727 1.727 0 0 0-1.274-.535c-.505 0-.936.178-1.293.535a1.765 1.765 0 0 0-.535 1.296c0 .507.177.939.532 1.296a1.76 1.76 0 0 0 1.296.536Zm-.647-1.191c.175.177.39.266.647.266a.879.879 0 0 0 .64-.266.872.872 0 0 0 .268-.641.873.873 0 0 0-.271-.643.871.871 0 0 0-.637-.269.875.875 0 0 0-.647.263.886.886 0 0 0-.262.649c0 .25.088.464.262.641Z" fill="#fff"/><rect x="176.07" y="236.08" width="62.392" height="46.333" rx="2.4" fill="#FAFAFA"/><path fill-rule="evenodd" clip-rule="evenodd" d="M208.394 272.428v-1.217h-3.831l2.44-2.539c.392-.41.679-.794.861-1.153.183-.359.274-.751.274-1.176 0-.741-.247-1.324-.74-1.749-.492-.425-1.127-.638-1.903-.638-.827 0-1.483.232-1.968.696-.485.464-.727 1.129-.727 1.995v.469l1.333.128v-.614c0-.542.122-.937.366-1.185.245-.248.579-.371 1.002-.371.403 0 .723.112.96.336.237.224.355.537.355.939 0 .519-.277 1.065-.832 1.638l-3.318 3.423v1.018h5.728Zm-19.316.111c.551 0 1.045-.099 1.484-.298a2.395 2.395 0 0 0 1.432-2.241c0-.503-.128-.942-.384-1.316a2.426 2.426 0 0 0-1.042-.855 2.07 2.07 0 0 0 .733-.716c.179-.295.268-.624.268-.986 0-.632-.236-1.15-.707-1.554-.472-.403-1.066-.605-1.784-.605-.73 0-1.332.201-1.805.602-.473.402-.71.921-.71 1.557 0 .362.091.691.273.986a2.1 2.1 0 0 0 .751.716 2.353 2.353 0 0 0-1.05.849c-.255.374-.382.815-.382 1.322 0 .511.129.962.387 1.352.258.39.608.685 1.048.886.441.201.936.301 1.488.301Zm0-5.125c-.357 0-.658-.116-.903-.348a1.143 1.143 0 0 1-.366-.863c0-.336.122-.618.366-.846.245-.228.546-.342.903-.342.353 0 .652.114.896.342.245.228.367.51.367.846 0 .339-.123.626-.37.86a1.25 1.25 0 0 1-.893.351Zm-1.13 3.505c.299.269.676.403 1.13.403.446 0 .818-.135 1.117-.406.299-.271.449-.629.449-1.074 0-.441-.15-.794-.449-1.059-.299-.265-.671-.398-1.117-.398-.454 0-.831.133-1.13.398-.299.265-.448.618-.448 1.059 0 .449.149.807.448 1.077Zm7.648 1.62a3.55 3.55 0 0 0 1.484-.298 2.395 2.395 0 0 0 1.432-2.241c0-.503-.128-.942-.384-1.316a2.42 2.42 0 0 0-1.042-.855c.311-.183.555-.422.734-.716.178-.295.267-.624.267-.986 0-.632-.235-1.15-.707-1.554-.471-.403-1.066-.605-1.784-.605-.73 0-1.331.201-1.805.602-.473.402-.71.921-.71 1.557 0 .362.091.691.274.986.182.294.432.533.751.716a2.35 2.35 0 0 0-1.051.849c-.254.374-.381.815-.381 1.322 0 .511.129.962.387 1.352.258.39.607.685 1.048.886.44.201.936.301 1.487.301Zm-.902-5.473c.244.232.545.348.902.348.349 0 .647-.117.893-.351.247-.234.37-.521.37-.86 0-.336-.122-.618-.367-.846a1.264 1.264 0 0 0-.896-.342c-.357 0-.658.114-.902.342-.245.228-.367.51-.367.846 0 .343.122.631.367.863Zm.902 4.256c-.454 0-.831-.134-1.129-.403-.299-.27-.449-.628-.449-1.077 0-.441.15-.794.449-1.059.298-.265.675-.398 1.129-.398.446 0 .819.133 1.118.398.298.265.448.618.448 1.059 0 .445-.15.803-.448 1.074-.299.271-.672.406-1.118.406Zm5.543.983a.792.792 0 0 1-.579.24.79.79 0 0 1-.576-.243.784.784 0 0 1-.245-.576c0-.226.082-.42.245-.582a.79.79 0 0 1 .576-.243c.225 0 .418.081.579.243a.797.797 0 0 1 .242.582.787.787 0 0 1-.242.579Zm12.964-1.509v1.632h-1.339v-1.632h-3.9v-1.217l3.196-5.494h2.043v5.5h1.141v1.211h-1.141Zm-1.339-1.211h-2.596l2.596-4.634v4.634Zm6.07-2.487a1.736 1.736 0 0 1-1.286.538c-.505 0-.935-.179-1.29-.538a1.787 1.787 0 0 1-.532-1.305c0-.503.178-.934.535-1.293a1.75 1.75 0 0 1 1.287-.538c.504 0 .933.179 1.286.538.353.359.53.79.53 1.293 0 .507-.177.942-.53 1.305Zm-.646 5.336 4.389-8.361h-1.164l-4.378 8.361h1.153Zm-1.281-5.994a.88.88 0 0 0 .641.266c.256 0 .47-.089.643-.266a.893.893 0 0 0 .259-.647.872.872 0 0 0-.262-.638.87.87 0 0 0-.64-.263.886.886 0 0 0-.641.261.858.858 0 0 0-.267.64.88.88 0 0 0 .267.647Zm5.222 6.088c.501 0 .927-.18 1.278-.539.351-.359.527-.79.527-1.293 0-.507-.177-.939-.53-1.296a1.728 1.728 0 0 0-1.275-.535 1.76 1.76 0 0 0-1.292.535 1.766 1.766 0 0 0-.536 1.296c0 .507.178.939.533 1.296.355.357.787.536 1.295.536Zm-.646-1.191c.175.177.39.266.646.266a.875.875 0 0 0 .64-.266.87.87 0 0 0 .268-.641.876.876 0 0 0-.27-.643.874.874 0 0 0-.638-.269.874.874 0 0 0-.646.263.882.882 0 0 0-.262.649c0 .25.087.463.262.641Z" fill="#1E272E"/><rect x="104.538" y="162.586" width="133.925" height="63.908" rx="2.4" fill="#FAFAFA"/><path fill-rule="evenodd" clip-rule="evenodd" d="M184.229 201.143c-.753.766-1.668 1.149-2.744 1.149-1.077 0-1.993-.383-2.751-1.149-.758-.765-1.136-1.693-1.136-2.783 0-1.074.38-1.993 1.142-2.759.762-.765 1.677-1.148 2.745-1.148 1.076 0 1.991.383 2.744 1.148a3.79 3.79 0 0 1 1.13 2.759 3.847 3.847 0 0 1-1.13 2.783Zm-59.585 10.972c-.936.424-1.991.636-3.167.636-1.176 0-2.233-.214-3.173-.642a5.21 5.21 0 0 1-2.235-1.891c-.551-.833-.826-1.794-.826-2.884 0-1.081.271-2.022.813-2.821.542-.799 1.29-1.402 2.242-1.81a4.459 4.459 0 0 1-1.602-1.529 3.914 3.914 0 0 1-.584-2.103c0-1.356.505-2.463 1.515-3.32 1.01-.857 2.293-1.286 3.85-1.286 1.532 0 2.8.431 3.806 1.292 1.006.861 1.509 1.966 1.509 3.314 0 .774-.19 1.475-.571 2.103a4.42 4.42 0 0 1-1.565 1.529c.936.417 1.677 1.024 2.223 1.823.547.799.82 1.735.82 2.808 0 1.09-.276 2.051-.826 2.884a5.27 5.27 0 0 1-2.229 1.897Zm-5.092-11.04c.522.495 1.163.742 1.925.742.745 0 1.38-.249 1.906-.749a2.432 2.432 0 0 0 .789-1.835c0-.715-.261-1.316-.783-1.803-.521-.487-1.159-.73-1.912-.73-.762 0-1.403.243-1.925.73a2.367 2.367 0 0 0-.782 1.803c0 .733.26 1.346.782 1.842Zm1.925 9.08c-.969 0-1.772-.287-2.409-.861-.638-.574-.957-1.34-.957-2.297 0-.94.319-1.693.957-2.259.637-.566 1.44-.849 2.409-.849.952 0 1.747.283 2.384.849.638.566.957 1.319.957 2.259 0 .949-.319 1.712-.957 2.291-.637.578-1.432.867-2.384.867Zm18.516-5.255-5.725 7.614h-3.316l4.72-6.103a5.414 5.414 0 0 1-1.118.112 5.66 5.66 0 0 1-2.757-.699c-.853-.466-1.55-1.15-2.093-2.053-.542-.903-.817-1.937-.825-3.102-.009-1.19.275-2.261.85-3.214a5.882 5.882 0 0 1 2.31-2.197c.965-.512 2.022-.768 3.173-.768 1.176 0 2.246.258 3.21.774a5.84 5.84 0 0 1 2.292 2.178c.563.936.844 1.987.844 3.152 0 1.456-.521 2.892-1.565 4.306Zm-4.706-.524c-1.06 0-1.927-.335-2.602-1.005-.675-.67-1.016-1.55-1.025-2.64-.008-1.073.332-1.945 1.019-2.615.687-.67 1.556-1.005 2.608-1.005 1.068 0 1.929.325 2.583.974.654.649.981 1.523.981 2.621 0 1.04-.333 1.912-1 2.615-.666.703-1.521 1.055-2.564 1.055Zm11.63 7.876a1.694 1.694 0 0 1-1.236.512c-.472 0-.882-.173-1.229-.518a1.673 1.673 0 0 1-.522-1.23c0-.482.174-.896.522-1.241a1.683 1.683 0 0 1 1.229-.518c.48 0 .892.172 1.236.518.343.345.515.759.515 1.241 0 .483-.172.895-.515 1.236Zm7.135.262 8.333-15.515v-2.284h-12.308v2.584h9.091l-8.37 15.215h3.254Zm20.23-3.482v3.482h-2.857v-3.482h-8.32v-2.596l6.818-11.721h4.359v11.733h2.434v2.584h-2.434Zm-2.857-2.584h-5.538l5.538-9.886v9.886Zm11.426 6.079 9.364-17.837h-2.484l-9.339 17.837h2.459Zm-2.732-12.788c.38.379.836.568 1.366.568.546 0 1.004-.189 1.372-.568.368-.379.553-.838.553-1.379 0-.533-.187-.986-.559-1.361a1.856 1.856 0 0 0-1.366-.562c-.53 0-.986.186-1.366.556-.381.37-.572.826-.572 1.367s.191 1 .572 1.379Zm11.139 12.988c1.068 0 1.977-.383 2.726-1.149.75-.765 1.124-1.685 1.124-2.758 0-1.082-.377-2.004-1.13-2.765-.753-.762-1.66-1.142-2.72-1.142-1.076 0-1.995.38-2.757 1.142-.761.761-1.142 1.683-1.142 2.765 0 1.081.379 2.003 1.136 2.764.758.762 1.679 1.143 2.763 1.143Zm-1.378-2.541c.372.379.832.568 1.378.568.53 0 .986-.189 1.366-.568.381-.378.572-.834.572-1.366 0-.533-.193-.991-.578-1.373-.385-.383-.838-.575-1.36-.575-.546 0-1.006.188-1.378.562a1.887 1.887 0 0 0-.559 1.386c0 .532.186.988.559 1.366Z" fill="#343A40"/><defs><filter id="a" x="0" y="0" width="177" height="163" filterUnits="userSpaceOnUse" color-interpolation-filters="sRGB"><feFlood flood-opacity="0" result="BackgroundImageFix"/><feColorMatrix in="SourceAlpha" values="0 0 0 0 0 0 0 0 0 0 0 0 0 0 0 0 0 0 127 0" result="hardAlpha"/><feOffset dy="6"/><feGaussianBlur stdDeviation="6"/><feColorMatrix values="0 0 0 0 0.311766 0 0 0 0 0.336514 0 0 0 0 0.386011 0 0 0 0.03 0"/><feBlend in2="BackgroundImageFix" result="effect1_dropShadow_0_259"/><feBlend in="SourceGraphic" in2="effect1_dropShadow_0_259" result="shape"/></filter><filter id="b" x="165" y="0" width="177" height="163" filterUnits="userSpaceOnUse" color-interpolation-filters="sRGB"><feFlood flood-opacity="0" result="BackgroundImageFix"/><feColorMatrix in="SourceAlpha" values="0 0 0 0 0 0 0 0 0 0 0 0 0 0 0 0 0 0 127 0" result="hardAlpha"/><feOffset dy="6"/><feGaussianBlur stdDeviation="6"/><feColorMatrix values="0 0 0 0 0.311766 0 0 0 0 0.336514 0 0 0 0 0.386011 0 0 0 0.03 0"/><feBlend in2="BackgroundImageFix" result="effect1_dropShadow_0_259"/><feBlend in="SourceGraphic" in2="effect1_dropShadow_0_259" result="shape"/></filter><filter id="c" x="83" y="147" width="177" height="163" filterUnits="userSpaceOnUse" color-interpolation-filters="sRGB"><feFlood flood-opacity="0" result="BackgroundImageFix"/><feColorMatrix in="SourceAlpha" values="0 0 0 0 0 0 0 0 0 0 0 0 0 0 0 0 0 0 127 0" result="hardAlpha"/><feOffset dy="6"/><feGaussianBlur stdDeviation="6"/><feColorMatrix values="0 0 0 0 0.311766 0 0 0 0 0.336514 0 0 0 0 0.386011 0 0 0 0.03 0"/><feBlend in2="BackgroundImageFix" result="effect1_dropShadow_0_259"/><feBlend in="SourceGraphic" in2="effect1_dropShadow_0_259" result="shape"/></filter></defs></svg>